<?xml version="1.0" standalone="no"?>
<!DOCTYPE svg PUBLIC "-//W3C//DTD SVG 20010904//EN"
 "http://www.w3.org/TR/2001/REC-SVG-20010904/DTD/svg10.dtd">
<svg version="1.0" xmlns="http://www.w3.org/2000/svg"
 width="500.000000pt" height="500.000000pt" viewBox="0 0 500.000000 500.000000"
 preserveAspectRatio="xMidYMid meet">
<metadata>
Created by potrace 1.14, written by Peter Selinger 2001-2017
</metadata>
<g transform="translate(0.000000,500.000000) scale(0.100000,-0.100000)"
fill="#000000" stroke="none">
<path d="M1934 4281 c-32 -20 -43 -47 -65 -160 -17 -90 -35 -105 -154 -137
-55 -14 -122 -29 -149 -31 l-48 -5 -78 81 c-43 45 -85 82 -94 82 -9 1 -22 2
-28 3 -25 4 -74 -18 -155 -67 -117 -72 -123 -92 -69 -252 l34 -100 -27 -21
c-38 -31 -109 -102 -163 -163 l-48 -53 -103 35 c-125 42 -160 41 -202 -7 -40
-45 -105 -163 -112 -202 -7 -41 9 -70 70 -124 28 -25 65 -59 82 -76 l32 -31
-28 -86 c-15 -47 -35 -118 -43 -157 -16 -80 -18 -83 -49 -87 -58 -8 -175 -37
-198 -49 -40 -20 -53 -64 -52 -185 0 -83 4 -114 16 -133 17 -26 45 -45 75 -51
168 -32 192 -39 196 -54 2 -9 8 -34 12 -56 4 -22 9 -44 10 -50 2 -5 5 -21 8
-35 3 -14 16 -57 30 -96 l24 -72 -89 -81 c-124 -115 -125 -127 -32 -282 46
-77 82 -109 125 -109 13 0 68 15 123 33 l98 33 122 -120 122 -121 -34 -99
c-18 -55 -33 -111 -33 -123 0 -44 28 -80 97 -121 161 -97 181 -95 290 26 42
48 78 88 79 90 0 1 30 -8 65 -21 54 -21 144 -44 235 -62 18 -4 24 -21 44 -115
34 -166 50 -178 227 -175 140 3 171 27 189 142 3 21 7 40 9 43 2 3 6 26 10 50
8 52 12 56 75 64 27 4 96 21 153 40 l106 33 18 -22 c114 -139 158 -173 212
-162 42 9 198 104 217 132 23 35 20 69 -16 183 l-33 102 82 76 c129 120 120
128 -150 127 -196 0 -200 -1 -237 -26 -116 -76 -295 -145 -447 -172 -91 -16
-277 -22 -331 -12 -16 4 -45 9 -64 11 -238 36 -465 152 -646 331 -152 150
-238 287 -312 500 -31 89 -55 251 -54 365 4 453 238 843 642 1067 50 28 170
79 209 89 242 62 473 67 661 13 25 -7 50 -13 55 -15 26 -6 134 -49 165 -67 82
-45 140 -79 140 -81 0 -1 -26 -3 -57 -5 -147 -5 -206 -19 -249 -60 -11 -9 -73
-126 -138 -259 l-120 -242 -25 52 c-31 63 -46 68 -181 69 -95 0 -130 -4 -151
-17 -15 -9 -3 -78 22 -130 23 -48 47 -60 133 -70 33 -3 67 -8 75 -9 9 -2 24
-4 34 -4 12 -1 -23 -48 -118 -158 -87 -101 -139 -171 -145 -193 -11 -40 -19
-167 -24 -376 -6 -210 18 -306 87 -358 l28 -21 1300 -1 c1205 -1 1302 0 1332
16 64 34 97 119 100 253 2 92 -12 427 -18 461 -10 48 -29 75 -159 226 -69 79
-124 146 -122 147 2 3 63 12 116 17 101 11 128 31 153 111 21 66 17 87 -19 97
-37 11 -177 13 -231 3 -47 -7 -61 -20 -85 -79 l-16 -41 -120 245 c-66 135
-129 253 -139 261 -33 29 -79 48 -132 53 -82 8 -341 18 -515 20 -145 2 -159 4
-168 22 -6 10 -45 51 -86 91 l-76 72 33 101 c53 161 48 177 -81 254 -88 51
-112 60 -165 57 -22 -1 -28 -6 -116 -99 -66 -70 -84 -74 -187 -46 -47 13 -104
28 -127 34 -68 17 -81 34 -103 139 -22 104 -39 137 -76 151 -14 6 -76 10 -137
10 -92 0 -118 -3 -143 -19z m1816 -855 c19 -2 63 -5 97 -7 103 -4 105 -6 242
-284 66 -135 121 -249 121 -253 0 -4 -443 -7 -984 -7 -541 0 -983 2 -982 5 2
3 57 116 124 252 121 248 138 273 193 283 13 3 92 8 174 11 83 4 152 8 154 10
5 5 818 -5 861 -10z m-1730 -1031 c14 -2 48 -6 75 -10 28 -3 82 -10 120 -16
39 -5 88 -12 110 -15 94 -13 110 -21 137 -71 14 -27 31 -65 38 -87 10 -32 10
-40 -3 -54 -18 -17 -34 -18 -287 -8 -237 9 -234 8 -260 63 -51 108 -75 187
-64 205 5 8 46 6 134 -7z m2555 -5 c1 -20 -27 -101 -58 -173 -17 -37 -34 -60
-50 -66 -13 -5 -109 -13 -213 -17 -242 -9 -283 -9 -297 5 -15 15 6 92 42 151
29 48 39 52 151 65 30 4 57 8 60 10 3 1 32 5 65 9 33 3 69 8 81 10 11 2 47 7
79 10 33 4 60 8 61 9 2 2 20 2 41 2 27 0 38 -4 38 -15z m-778 -128 c7 -4 16
-19 22 -33 7 -21 0 -54 -39 -174 -27 -82 -56 -155 -64 -163 -13 -13 -82 -15
-486 -15 -451 0 -472 1 -489 19 -20 21 -102 258 -106 307 -2 18 4 36 15 47 17
17 53 18 577 19 307 0 564 -3 570 -7z m-1415 -278 c41 -38 28 -106 -24 -128
-56 -24 -107 10 -108 70 0 69 80 104 132 58z m1784 13 c22 -8 44 -45 44 -76 0
-10 -9 -30 -21 -45 -16 -20 -29 -26 -59 -26 -65 0 -101 66 -64 118 25 36 54
44 100 29z"/>
<path d="M2743 2192 c-40 -2 -73 -5 -73 -8 0 -3 4 -13 9 -22 8 -16 51 -17 543
-16 293 1 538 2 544 3 7 0 14 10 17 21 5 19 0 20 -76 21 -265 3 -903 4 -964 1z"/>
<path d="M2705 2092 c-9 -9 10 -42 24 -42 184 -4 1002 -1 1010 4 6 4 11 15 11
24 0 16 -38 17 -521 17 -286 0 -522 -1 -524 -3z"/>
<path d="M2740 1976 c7 -21 12 -21 489 -24 291 -1 481 1 481 7 0 5 3 16 6 24
5 13 -57 15 -489 14 l-495 0 8 -21z"/>
<path d="M1753 2100 c-4 -17 -8 -154 -7 -305 1 -362 -10 -345 230 -345 206 0
234 20 234 169 l0 69 -145 1 c-154 0 -179 6 -221 53 -53 57 -76 145 -75 286 0
56 -2 102 -4 102 -3 0 -8 -14 -12 -30z"/>
<path d="M4687 2014 c-7 -156 -17 -197 -64 -261 -41 -54 -76 -64 -233 -64
l-140 -1 0 -85 c0 -83 1 -86 34 -119 l34 -34 157 0 c170 0 202 8 224 57 7 16
11 126 11 311 0 297 -13 409 -23 196z"/>
</g>
</svg>
